<?xml version="1.0" standalone="no"?>
<!DOCTYPE svg PUBLIC "-//W3C//DTD SVG 20010904//EN"
 "http://www.w3.org/TR/2001/REC-SVG-20010904/DTD/svg10.dtd">
<svg version="1.0" xmlns="http://www.w3.org/2000/svg"
 width="500.000000pt" height="500.000000pt" viewBox="0 0 500.000000 500.000000"
 preserveAspectRatio="xMidYMid meet">

<g transform="translate(0.000000,500.000000) scale(0.100000,-0.100000)"
fill="#000000" stroke="none">
<path d="M0 2500 l0 -2500 2500 0 2500 0 0 2500 0 2500 -2500 0 -2500 0 0
-2500z m3386 1282 c14 -8 14 -10 0 -21 -12 -10 -16 -11 -16 -1 0 7 -7 10 -15
6 -8 -3 -15 -1 -15 5 0 6 -4 7 -10 4 -5 -3 -19 -8 -30 -10 -11 -2 -37 -18 -58
-34 -35 -30 -69 -44 -44 -19 21 21 13 31 -13 14 -14 -9 -25 -13 -25 -10 0 4
-10 -1 -22 -12 l-21 -19 18 28 c10 15 20 26 22 23 3 -2 13 4 24 15 11 11 24
17 28 14 5 -3 29 4 53 14 42 19 93 20 124 3z m-1456 -14 c0 13 59 7 73 -7 7
-7 14 -7 23 0 8 7 14 7 19 -1 3 -5 17 -10 29 -10 15 0 36 -15 57 -40 19 -22
39 -40 44 -40 6 0 21 -10 35 -21 18 -15 20 -19 6 -15 -14 5 -17 2 -12 -11 5
-15 4 -15 -9 1 -8 11 -15 16 -15 12 0 -5 -9 2 -20 15 -14 17 -19 20 -20 9 0
-9 -9 -4 -25 15 -18 23 -24 26 -25 13 0 -13 -8 -9 -32 18 -20 20 -43 35 -58
36 -14 1 -34 9 -44 17 -18 15 -19 15 -13 -2 6 -15 4 -16 -13 -7 -10 5 -22 16
-26 23 -5 8 -2 7 9 -2 10 -8 17 -9 17 -3z m1490 -30 c0 -5 4 -7 9 -3 10 6 11
4 13 -87 1 -32 6 -58 11 -58 5 0 4 -7 -3 -15 -9 -11 -9 -15 -1 -15 7 0 9 -5 4
-12 -4 -7 -9 -24 -9 -38 -1 -14 -2 -31 -3 -37 -1 -7 -11 -13 -23 -13 -13 0
-18 4 -13 8 6 4 10 14 10 22 -1 8 1 19 4 25 3 5 6 24 7 41 0 17 4 36 8 42 4 7
2 12 -5 12 -8 0 -8 4 1 15 9 11 10 15 1 15 -8 0 -10 8 -6 20 3 11 2 20 -3 20
-6 0 -8 10 -4 22 4 16 2 19 -8 13 -10 -6 -12 -4 -7 9 5 13 3 17 -7 13 -10 -4
-13 -1 -10 8 6 15 34 9 34 -7z m-1533 -10 c-3 -8 -6 -5 -6 6 -1 11 2 17 5 13
3 -3 4 -12 1 -19z m1385 -21 c-23 -24 -30 -43 -12 -32 17 10 11 -1 -10 -20
-20 -18 -21 -18 -13 1 7 19 6 19 -21 1 -43 -29 -20 5 29 42 48 37 56 39 27 8z
m-1402 -9 c0 -16 -3 -19 -11 -11 -6 6 -8 16 -5 22 11 17 16 13 16 -11z m207
-73 c13 -38 13 -38 -7 -20 -11 10 -19 23 -17 29 3 6 -5 22 -17 36 l-21 24 24
-15 c14 -9 30 -33 38 -54z m503 45 c0 -13 -18 -22 -24 -12 -3 5 -16 7 -30 5
-13 -3 -26 -1 -29 4 -3 5 14 10 39 11 24 1 44 -3 44 -8z m135 -1 c3 -4 -3 -9
-15 -12 -11 -3 -20 -2 -20 2 0 4 -9 7 -20 8 -11 1 -20 -3 -20 -10 0 -8 -3 -8
-11 0 -6 6 -19 9 -28 6 -11 -3 -12 -2 -4 4 14 10 108 11 118 2z m169 -1 c-2
-3 18 -9 46 -13 27 -4 50 -11 50 -17 0 -6 6 -8 13 -5 6 2 21 1 32 -3 19 -7 19
-7 -2 -19 -20 -10 -22 -9 -16 5 4 10 2 15 -4 11 -5 -3 -32 1 -59 9 -26 8 -54
12 -61 10 -7 -3 -13 -2 -13 3 0 10 -31 8 -49 -4 -10 -5 -12 -4 -7 4 9 13 -29
12 -51 -2 -9 -6 -11 -3 -6 10 6 15 4 16 -8 6 -13 -10 -16 -10 -16 1 0 11 17
14 78 13 42 -1 75 -5 73 -9z m225 -30 c1 -5 -6 -8 -14 -8 -7 0 -18 -7 -23 -16
-8 -14 -10 -14 -15 -1 -3 10 1 17 14 20 12 3 19 14 20 29 0 22 1 22 9 3 5 -11
9 -23 9 -27z m-714 14 c-3 -3 -11 0 -18 7 -9 10 -8 11 6 5 10 -3 15 -9 12 -12z
m87 -1 c11 -11 10 -12 -6 -4 -10 6 -27 8 -37 6 -11 -3 -19 -1 -19 4 0 14 47
10 62 -6z m-632 -26 c0 -5 -5 -3 -10 5 -5 8 -10 20 -10 25 0 6 5 3 10 -5 5 -8
10 -19 10 -25z m433 15 c9 -11 7 -11 -7 0 -18 14 -19 13 -13 -2 8 -23 4 -23
-16 0 -16 18 -16 19 3 17 11 -1 26 -8 33 -15z m82 2 c-3 -3 -11 0 -18 7 -9 10
-8 11 6 5 10 -3 15 -9 12 -12z m-30 -2 c3 -5 2 -10 -4 -10 -5 0 -13 5 -16 10
-3 6 -2 10 4 10 5 0 13 -4 16 -10z m892 -28 c-21 -23 -22 -39 -3 -23 10 8 16
9 21 1 3 -5 -6 -15 -20 -20 -35 -13 -34 -13 -28 13 7 27 22 47 36 47 5 0 3 -8
-6 -18z m-1152 -42 c10 -11 16 -20 13 -20 -3 0 -13 9 -23 20 -10 11 -16 20
-13 20 3 0 13 -9 23 -20z m6 -47 c13 -16 12 -17 -3 -4 -17 13 -22 21 -14 21 2
0 10 -8 17 -17z m390 -90 c13 -16 12 -17 -3 -4 -10 7 -18 15 -18 17 0 8 8 3
21 -13z m959 7 c-20 -13 -43 -13 -35 0 3 6 16 10 28 10 18 0 19 -2 7 -10z
m-611 -29 c-7 -10 -20 -23 -30 -29 -15 -10 -17 -9 -12 6 6 15 3 14 -18 -3
l-24 -20 24 27 c13 15 29 24 36 22 7 -3 16 -1 20 5 3 6 8 11 11 11 2 0 -1 -8
-7 -19z m56 -3 c-16 -6 -36 -16 -44 -22 -12 -9 -12 -8 -2 12 9 16 20 22 44 21
l32 -1 -30 -10z m536 3 c-7 -5 -11 -13 -7 -19 4 -6 -2 -8 -14 -5 -19 5 -20 6
-3 19 10 7 23 13 28 14 6 0 4 -4 -4 -9z m-1090 -38 c13 -16 12 -17 -3 -4 -10
7 -18 15 -18 17 0 8 8 3 21 -13z m1060 -22 c-7 -5 -10 -14 -7 -20 5 -7 -1 -11
-16 -10 -13 0 -17 3 -10 6 6 2 12 11 12 19 0 8 8 14 18 14 13 0 14 -2 3 -9z
m-1117 -88 c7 3 19 1 27 -4 11 -7 10 -9 -6 -10 l-20 0 20 -9 c12 -5 14 -9 6
-9 -20 -1 -51 29 -50 48 1 12 2 12 6 -2 3 -10 10 -16 17 -14z m601 -9 c-10 -7
-22 -11 -28 -7 -6 3 -7 1 -3 -5 5 -8 0 -12 -13 -12 -12 0 -21 3 -21 6 0 11 25
29 45 32 11 2 22 9 24 15 3 8 6 7 9 -2 3 -8 -3 -20 -13 -27z m-645 11 c7 -9 8
-15 2 -15 -5 0 -12 7 -16 15 -3 8 -4 15 -2 15 2 0 9 -7 16 -15z m-117 -52 c-7
-2 -19 -2 -25 0 -7 3 -2 5 12 5 14 0 19 -2 13 -5z m195 0 c-10 -2 -26 -2 -35
0 -10 3 -2 5 17 5 19 0 27 -2 18 -5z m615 0 c-24 -2 -62 -2 -85 0 -24 2 -5 4
42 4 47 0 66 -2 43 -4z m-883 -7 c0 -2 -15 -6 -34 -8 -19 -2 -32 0 -30 4 5 8
64 12 64 4z m333 -3 c-7 -2 -19 -2 -25 0 -7 3 -2 5 12 5 14 0 19 -2 13 -5z
m390 0 c-7 -2 -21 -2 -30 0 -10 3 -4 5 12 5 17 0 24 -2 18 -5z m311 1 c9 -3
16 -11 16 -16 0 -7 -4 -7 -12 0 -7 6 -26 12 -43 15 -29 4 -29 4 -3 6 14 0 33
-2 42 -5z m-447 -91 c-3 -10 -5 -4 -5 12 0 17 2 24 5 18 2 -7 2 -21 0 -30z
m673 21 c0 -8 -19 -13 -24 -6 -3 5 1 9 9 9 8 0 15 -2 15 -3z m-730 -49 c14 -8
21 -14 17 -15 -9 0 -3 -8 59 -77 93 -104 161 -303 121 -357 -12 -16 -13 -12
-10 28 3 43 -7 60 -22 36 -3 -5 -12 -10 -18 -10 -8 0 -9 2 -1 8 23 15 33 46
19 59 -10 10 -16 7 -29 -10 -15 -21 -15 -21 -10 13 l6 35 -27 -33 c-15 -17
-35 -37 -46 -42 -19 -11 -19 -10 1 22 27 44 25 81 -6 133 -28 48 -32 50 -115
60 -66 7 -101 -6 -120 -44 -7 -14 -15 -29 -17 -33 -2 -3 14 2 35 13 20 10 55
19 76 19 44 0 103 -24 111 -46 5 -12 2 -12 -17 0 -33 21 -98 28 -147 16 -25
-6 -52 -12 -60 -14 -10 -2 -16 -18 -19 -47 -2 -33 -5 -39 -11 -24 -7 18 -9 17
-20 -10 -7 -16 -17 -40 -23 -52 -9 -20 -6 -82 8 -128 3 -11 -1 -6 -9 10 -40
81 3 243 94 350 48 57 58 65 105 80 16 5 17 8 5 15 -13 9 -13 10 0 11 10 0 8
3 -5 8 -19 8 -19 8 3 15 12 4 22 12 22 17 0 13 21 11 50 -6z m-130 -19 c0 -2
-8 -10 -17 -17 -16 -13 -17 -12 -4 4 13 16 21 21 21 13z m667 -33 c-3 -10 -5
-4 -5 12 0 17 2 24 5 18 2 -7 2 -21 0 -30z m-697 -6 c0 -2 -10 -12 -22 -23
l-23 -19 19 23 c18 21 26 27 26 19z m871 -14 c13 -16 12 -17 -3 -4 -17 13 -22
21 -14 21 2 0 10 -8 17 -17z m-6 -23 c10 -11 16 -20 13 -20 -3 0 -13 9 -23 20
-10 11 -16 20 -13 20 3 0 13 -9 23 -20z m-905 -13 c0 -2 -17 -19 -37 -38 l-38
-34 34 38 c33 34 41 42 41 34z m937 -93 c10 -51 11 -84 3 -79 -11 7 -7 -46 5
-65 5 -9 4 -11 -3 -6 -15 9 -15 1 -1 -27 10 -20 9 -20 -14 3 -26 26 -49 78
-28 66 17 -11 13 5 -9 42 l-20 33 20 -11 c22 -12 27 -1 8 19 -11 11 -10 13 5
8 9 -4 17 -2 17 3 0 6 -6 10 -12 11 -10 0 -10 2 0 6 10 4 9 10 -5 26 -18 21
-18 21 6 6 13 -8 26 -24 28 -35z m-852 22 c-42 -13 -59 -11 -35 4 8 6 29 9 45
9 28 -1 28 -1 -10 -13z m118 5 c13 -5 27 -17 30 -25 6 -15 4 -15 -23 -1 -16 8
-36 15 -45 15 -9 0 -13 5 -10 10 8 12 17 13 48 1z m-360 -8 c-7 -2 -19 -2 -25
0 -7 3 -2 5 12 5 14 0 19 -2 13 -5z m740 0 c-7 -2 -19 -2 -25 0 -7 3 -2 5 12
5 14 0 19 -2 13 -5z m-935 -83 c-7 -10 -14 -17 -17 -15 -4 4 18 35 25 35 2 0
-1 -9 -8 -20z m22 -78 c0 -5 -7 -17 -16 -28 -8 -10 -14 -14 -11 -9 2 6 7 18
10 28 7 17 17 23 17 9z m1058 -37 c-3 -3 -9 2 -12 12 -6 14 -5 15 5 6 7 -7 10
-15 7 -18z m182 -13 c0 -15 -2 -15 -10 -2 -13 20 -13 33 0 25 6 -3 10 -14 10
-23z m-18 -27 c3 -13 1 -22 -3 -19 -4 2 -11 -11 -15 -31 -3 -19 -10 -32 -15
-29 -5 3 -9 -5 -9 -17 0 -12 -3 -20 -6 -16 -10 9 7 108 17 101 5 -3 9 7 9 21
0 32 16 25 22 -10z m-155 3 c-3 -8 -6 -5 -6 6 -1 11 2 17 5 13 3 -3 4 -12 1
-19z m-1075 -20 c-8 -8 -9 -4 -5 13 4 13 8 18 11 10 2 -7 -1 -18 -6 -23z
m1338 -43 c0 -12 -13 -40 -29 -61 -45 -61 -172 -179 -218 -203 -24 -12 -43
-25 -43 -29 0 -4 -17 -16 -37 -27 -20 -11 -49 -29 -63 -41 -23 -19 -112 -62
-285 -136 -38 -17 -103 -46 -144 -64 -40 -19 -76 -34 -80 -34 -18 0 111 64
244 121 239 102 505 287 608 424 40 54 43 64 25 85 -11 12 -10 12 5 1 9 -7 17
-23 17 -36z m-443 3 c-3 -8 -6 -5 -6 6 -1 11 2 17 5 13 3 -3 4 -12 1 -19z
m-107 -1 c0 -2 -14 -16 -32 -33 -18 -16 -26 -20 -18 -9 19 27 50 53 50 42z
m-773 -44 c-3 -10 -5 -4 -5 12 0 17 2 24 5 18 2 -7 2 -21 0 -30z m1349 -58
c-4 -14 -23 -36 -46 -50 -58 -37 -52 -42 20 -17 8 3 12 2 9 -2 -4 -4 -42 -20
-85 -36 l-79 -29 50 46 c28 25 67 57 88 70 20 13 37 31 37 40 0 9 3 14 6 10 4
-3 4 -18 0 -32z m-1448 -15 c-7 -10 -14 -17 -17 -15 -4 4 18 35 25 35 2 0 -1
-9 -8 -20z m1512 -34 c0 -2 -8 -10 -17 -17 -16 -13 -17 -12 -4 4 13 16 21 21
21 13z m-1468 -102 c42 -48 92 -114 86 -114 -5 0 -85 98 -125 154 -13 17 -23
37 -23 46 1 8 7 1 14 -16 8 -18 30 -49 48 -70z m1408 56 c-14 -11 -61 -37
-105 -59 -44 -21 -86 -46 -94 -55 -16 -19 115 41 198 91 45 26 58 30 75 21 12
-6 16 -12 11 -14 -6 -1 -21 -5 -35 -8 -14 -3 -41 -16 -60 -28 -19 -12 -93 -46
-165 -75 -71 -29 -146 -65 -166 -79 -21 -15 -55 -27 -80 -29 -24 -2 -57 -8
-73 -14 -48 -19 -39 -6 14 19 28 13 50 27 50 32 0 10 280 150 345 172 28 9 61
23 75 31 35 20 39 18 10 -5z m-683 -32 c-3 -8 -6 -5 -6 6 -1 11 2 17 5 13 3
-3 4 -12 1 -19z m3 -28 c0 -5 -5 -10 -11 -10 -5 0 -7 5 -4 10 3 6 8 10 11 10
2 0 4 -4 4 -10z m781 -11 c23 -19 23 -20 2 -10 -12 6 -43 12 -70 12 -47 2 -47
2 -13 9 55 11 56 11 81 -11z m-16 -198 c30 -40 45 -91 45 -148 0 -56 -12 -84
-64 -152 -24 -31 -62 -94 -84 -141 -22 -47 -48 -94 -56 -105 -13 -18 -5 9 56
180 6 17 24 48 39 69 29 40 38 76 19 76 -7 0 -7 6 -1 18 9 17 14 60 12 97 -1
13 -6 7 -15 -18 -8 -21 -36 -61 -63 -90 -36 -38 -53 -66 -62 -102 -21 -83 -41
-133 -59 -147 -15 -11 -15 -11 -5 2 6 9 19 49 29 90 18 82 34 119 59 140 9 7
21 23 27 34 21 42 -84 -71 -119 -126 -20 -32 -37 -58 -39 -58 -6 0 50 116 79
163 52 86 97 204 98 260 0 46 2 49 11 27 5 -14 8 -52 5 -85 -4 -56 -4 -58 8
-30 9 21 15 25 18 15 3 -8 8 -22 10 -30 3 -8 6 -4 6 10 1 22 -9 65 -33 150 -5
17 2 11 24 -20 17 -25 42 -60 55 -79z m-276 95 c-2 -2 -53 -29 -114 -60 -60
-30 -129 -67 -152 -81 -62 -38 -52 -22 15 23 90 62 203 117 246 121 5 1 7 -1
5 -3z m89 -92 c-18 -30 -46 -67 -61 -82 -27 -25 -27 -24 7 28 71 108 33 79
-98 -75 -24 -27 -62 -85 -86 -127 -24 -43 -45 -76 -48 -74 -5 6 56 125 82 161
37 50 41 61 11 35 l-28 -25 31 45 c43 61 106 130 93 103 -32 -66 17 -33 87 60
32 42 37 46 40 27 2 -12 -11 -46 -30 -76z m36 -53 c-15 -42 -53 -114 -84 -161
-73 -108 -82 -126 -114 -234 -15 -48 -29 -86 -32 -84 -7 8 44 175 67 221 21
41 21 42 1 24 -11 -10 -26 -33 -33 -50 -6 -18 -29 -59 -49 -92 -21 -33 -45
-84 -55 -112 -9 -29 -19 -53 -22 -53 -14 0 50 203 97 305 16 33 60 98 99 145
72 85 140 192 143 227 1 10 3 0 5 -21 3 -26 -5 -65 -23 -115z m-1233 122 c13
-16 12 -17 -3 -4 -10 7 -18 15 -18 17 0 8 8 3 21 -13z m1470 -138 c18 -33 40
-72 50 -87 11 -14 19 -35 19 -46 0 -29 -61 -168 -104 -234 -20 -31 -36 -65
-37 -75 0 -12 -2 -13 -6 -5 -3 7 11 48 30 91 44 95 74 245 59 288 -10 27 -10
27 -11 -13 -1 -29 -18 -75 -61 -160 -33 -65 -69 -130 -80 -144 l-20 -25 14 41
c8 22 29 67 47 100 86 157 83 147 72 236 -7 53 -18 90 -32 109 -12 15 -21 32
-21 36 0 17 52 -54 81 -112z m-608 74 c-18 -18 -123 -46 -152 -41 -20 4 -9 10
54 27 95 27 113 29 98 14z m-260 -86 c-7 -2 -19 -2 -25 0 -7 3 -2 5 12 5 14 0
19 -2 13 -5z m97 -38 c-46 -18 -64 -17 -25 0 17 8 37 14 45 14 8 0 -1 -7 -20
-14z m212 -77 c-10 -18 -45 -82 -77 -143 -53 -101 -141 -223 -152 -211 -3 3
13 26 35 53 22 26 64 93 93 148 47 92 106 185 117 185 2 0 -5 -15 -16 -32z
m-118 -39 c-21 -22 -52 -50 -69 -61 -16 -12 -1 9 34 45 36 37 67 64 70 62 2
-3 -13 -24 -35 -46z m-1167 -31 c-3 -8 -6 -5 -6 6 -1 11 2 17 5 13 3 -3 4 -12
1 -19z m687 -84 c22 -8 20 -26 -1 -23 -52 5 -61 -23 -13 -40 23 -7 30 -16 30
-35 0 -36 -31 -50 -76 -36 -42 14 -38 23 12 24 47 1 54 19 15 36 -37 15 -44
32 -25 59 16 22 31 26 58 15z m-104 -74 c0 -40 -4 -70 -10 -70 -6 0 -10 30
-10 70 0 40 4 70 10 70 6 0 10 -30 10 -70z m187 36 c-5 -29 -2 -35 16 -40 38
-10 45 -7 56 24 5 17 17 30 25 30 12 0 8 -15 -17 -72 -19 -40 -38 -71 -43 -69
-10 3 -10 5 1 39 6 19 3 22 -24 22 -24 0 -31 -4 -31 -19 0 -19 -17 -38 -26
-29 -4 4 12 110 21 136 2 6 10 12 16 12 8 0 10 -12 6 -34z m-221 -113 c-3 -3
-12 0 -20 6 -19 16 -56 5 -78 -22 -9 -12 -18 -20 -21 -17 -2 3 3 40 11 82 20
102 36 106 80 20 18 -35 31 -66 28 -69z m-159 49 c-3 -14 1 -31 9 -39 19 -20
7 -41 -38 -64 -22 -11 -41 -19 -42 -17 -2 2 -10 32 -18 68 l-15 65 35 17 c47
21 76 9 69 -30z m591 -44 c-2 -46 -7 -73 -15 -76 -8 -2 -13 5 -13 16 0 25 -55
51 -73 33 -6 -6 -15 -11 -19 -11 -18 0 -6 22 40 73 38 43 51 52 65 45 15 -8
17 -20 15 -80z m-258 -108 c0 -5 -4 -10 -10 -10 -5 0 -11 -17 -12 -37 l-1 -38
-4 38 c-3 24 -9 37 -19 37 -8 0 -14 5 -14 10 0 6 14 10 30 10 17 0 30 -4 30
-10z m-92 -7 c-19 -5 -25 -23 -8 -23 6 0 10 -5 10 -11 0 -5 -4 -7 -10 -4 -6 4
-10 -5 -10 -19 0 -16 6 -26 15 -26 13 0 15 -20 15 -124 0 -69 -4 -136 -10
-151 -14 -38 -71 -59 -117 -44 -41 13 -52 34 -30 57 13 12 21 13 40 5 15 -7
29 -8 40 -1 15 8 17 27 17 134 l0 124 -24 -6 c-27 -7 -31 -2 -40 49 -7 36 -6
37 21 36 17 -1 21 -3 11 -6 -23 -6 -23 -23 -1 -23 15 0 14 -2 -3 -14 -23 -17
-19 -21 24 -29 l33 -7 -7 45 c-6 45 -6 45 22 44 17 -1 22 -3 12 -6z m118 -39
c-4 -20 -10 -34 -12 -31 -3 3 -2 21 2 41 3 21 9 35 11 32 3 -3 2 -21 -1 -42z
m35 15 c-9 -22 -10 -22 -10 -3 -1 11 2 24 6 27 12 12 14 0 4 -24z m63 -24 c-5
-29 -3 -35 12 -35 10 0 28 10 41 22 l23 21 0 -21 c0 -24 10 -28 27 -11 9 9 13
2 19 -25 3 -20 4 -39 1 -43 -3 -3 -44 -5 -91 -4 l-86 1 0 -45 0 -45 70 0 c68
0 70 -1 70 -25 0 -24 -2 -25 -70 -25 l-70 0 0 -30 0 -30 90 0 90 0 0 -30 0
-30 -120 0 -120 0 0 160 c0 136 2 160 15 160 8 0 15 8 16 18 0 15 1 15 8 -2 7
-17 10 -16 37 17 36 46 47 47 38 2z m-376 0 c-9 -21 -8 -28 7 -45 20 -22 14
-26 -16 -10 -16 9 -19 7 -19 -9 0 -24 -16 -36 -23 -19 -3 7 -6 -33 -6 -90 -1
-127 -15 -165 -64 -181 -28 -10 -42 -9 -70 2 -44 19 -54 35 -33 55 13 13 21
14 45 5 50 -18 56 -6 59 132 3 117 5 125 23 125 11 0 17 5 14 10 -12 19 7 10
26 -12 l18 -23 1 35 c1 28 3 31 10 15 7 -18 8 -18 15 8 4 15 11 27 16 27 5 0
3 -11 -3 -25z m802 -50 c34 -18 36 -23 16 -50 -12 -17 -17 -18 -40 -7 -61 27
-117 6 -142 -54 -31 -74 36 -154 114 -138 25 5 32 12 32 30 0 20 -5 24 -30 24
-25 0 -30 4 -30 25 0 24 3 25 60 25 l60 0 0 -64 c0 -71 -5 -79 -67 -95 -93
-25 -194 40 -208 134 -19 124 124 227 235 170z m-1245 -370 c51 -51 13 -125
-65 -125 l-40 0 0 75 0 75 40 0 c30 0 47 -7 65 -25z m200 15 c-3 -5 -24 -10
-46 -10 -37 0 -39 -2 -39 -30 0 -28 3 -30 38 -32 l37 -1 -37 -4 c-30 -3 -38
-9 -38 -24 0 -16 7 -19 39 -19 22 0 43 -4 46 -10 4 -6 -15 -10 -49 -10 l-56 0
0 75 0 75 56 0 c34 0 53 -4 49 -10z m98 -47 l25 -58 25 58 c14 31 30 57 36 57
10 0 -42 -126 -58 -143 -4 -4 -20 20 -36 55 -39 89 -38 88 -27 88 5 0 21 -26
35 -57z m262 47 c-3 -5 -24 -10 -46 -10 -37 0 -39 -2 -39 -30 0 -28 3 -30 38
-32 l37 -1 -37 -4 c-30 -3 -38 -9 -38 -24 0 -16 7 -19 39 -19 22 0 43 -4 46
-10 4 -6 -15 -10 -49 -10 l-56 0 0 75 0 75 56 0 c34 0 53 -4 49 -10z m120
-120 c19 0 37 -4 40 -10 4 -6 -11 -10 -38 -10 -44 0 -45 1 -51 38 -8 51 -8 97
2 106 4 4 8 -22 10 -58 l3 -66 34 0z m222 108 c15 -14 23 -33 23 -54 0 -69
-87 -101 -129 -48 -28 35 -26 69 4 99 30 31 71 32 102 3z m186 -10 c19 -25 19
-28 4 -52 -9 -13 -30 -27 -47 -31 -16 -4 -30 -13 -30 -21 0 -8 -4 -14 -10 -14
-6 0 -10 32 -10 76 l0 75 37 -3 c25 -2 42 -11 56 -30z m187 22 c0 -5 -20 -10
-45 -10 -43 0 -45 -1 -45 -30 0 -28 2 -30 43 -32 l42 -1 -42 -4 c-35 -3 -43
-8 -43 -24 0 -16 7 -19 45 -19 25 0 45 -4 45 -10 0 -5 -25 -10 -55 -10 l-55 0
0 75 0 75 55 0 c30 0 55 -4 55 -10z m162 -7 c20 -18 24 -63 7 -80 -8 -8 -8
-17 0 -32 7 -13 8 -21 2 -21 -6 0 -15 9 -21 20 -6 12 -21 20 -35 20 -18 0 -25
-5 -25 -20 0 -11 -4 -20 -10 -20 -6 0 -10 32 -10 75 l0 75 37 0 c20 0 45 -7
55 -17z m162 11 c29 -11 16 -23 -19 -17 -48 8 -48 -21 0 -44 39 -18 53 -46 35
-68 -16 -19 -61 -19 -86 0 -14 11 -15 14 -4 15 8 0 22 -4 29 -9 16 -10 51 3
51 19 0 5 -18 19 -40 30 -41 21 -51 45 -28 68 13 13 37 15 62 6z"/>
<path d="M2056 3725 c4 -8 11 -15 16 -15 6 0 5 6 -2 15 -7 8 -14 15 -16 15 -2
0 -1 -7 2 -15z"/>
<path d="M2710 2801 c0 -5 5 -13 10 -16 6 -3 10 -2 10 4 0 5 -4 13 -10 16 -5
3 -10 2 -10 -4z"/>
<path d="M3490 2005 c0 -8 2 -15 4 -15 2 0 6 7 10 15 3 8 1 15 -4 15 -6 0 -10
-7 -10 -15z"/>
<path d="M2187 1725 c-9 -23 -9 -55 1 -55 4 0 13 4 20 9 12 7 12 13 0 36 -13
23 -16 25 -21 10z"/>
<path d="M2042 1697 c-6 -7 -7 -18 -3 -25 11 -18 41 -4 41 19 0 22 -22 25 -38
6z"/>
<path d="M2054 1644 c-11 -5 -8 -44 3 -44 15 0 43 23 43 35 0 14 -23 19 -46 9z"/>
<path d="M2646 1681 c-18 -20 -19 -23 -3 -38 21 -22 29 -13 25 27 l-3 32 -19
-21z"/>
<path d="M2530 1470 c-9 -16 -8 -18 5 -14 8 4 15 12 15 20 0 20 -7 17 -20 -6z"/>
<path d="M1660 1015 c0 -54 0 -55 29 -55 16 0 37 7 45 16 36 35 6 94 -47 94
-26 0 -27 -2 -27 -55z"/>
<path d="M2557 1052 c-35 -39 -13 -92 37 -92 39 0 59 19 59 57 0 48 -64 71
-96 35z"/>
<path d="M2760 1030 c0 -33 3 -40 19 -40 18 0 51 24 51 36 0 20 -25 44 -45 44
-22 0 -25 -4 -25 -40z"/>
<path d="M3110 1031 c0 -36 3 -41 24 -41 30 0 49 22 44 52 -2 18 -10 24 -35
26 -32 3 -33 2 -33 -37z"/>
</g>
</svg>
